<svg xmlns="http://www.w3.org/2000/svg" xmlns:xlink="http://www.w3.org/1999/xlink" width="700" height="360"
    viewBox="0 0 2012.73 954.02">
    <defs>
        <style>
            svg {
                margin: 0 auto;
            }

            .film-wrap,
            .cls-11 {
                animation: rotate-disc 10s infinite linear;
                transform-origin: 84.8% 55%;
            }

            .video-progress {
                animation: video-progress 10s infinite linear;
            }

            @keyframes video-progress {
                0% {
                    width: 0;
                }

                5% {
                    width: 0;
                }

                100% {
                    width: 497px;
                }
            }

            @keyframes rotate-disc {
                0% {
                    transform: rotate(0deg);
                }

                100% {
                    transform: rotate(360deg);
                }
            }

            .like-box{
                transform: translateY(-30px);
                animation: like-box 10s infinite linear;
            }
            @keyframes like-box {
                0%{
                    opacity: 0;
                }
                10%{
                    opacity: 0;
                }
                15%{
                    opacity: 1;
                }
                45%{
                    opacity: 1;
                }
                50%{
                    opacity: 0;
                }
                100%{
                    opacity: 0;
                }
            }

            .comment-box{
                transform: translateY(-30px);
                animation: comment-box 10s infinite linear;
            }
            @keyframes comment-box {
                0%{
                    opacity: 0;
                }
                50%{
                    opacity: 0;
                }
                55%{
                    opacity: 1;
                }
                80%{
                    opacity: 1;
                }
                85%{
                    opacity: 0;
                }
                100%{
                    opacity: 0;
                }
            }

            .cls-1 {
                fill: none;
            }

            .cls-2 {
                fill: #050820;
                opacity: 0.1;
            }

            .cls-3 {
                fill: #f9f9f9;
            }

            .cls-4 {
                fill: #091c7a;
            }

            .cls-5 {
                fill: #051166;
            }

            .cls-6 {
                fill: #03196b;
            }

            .cls-7 {
                fill: #102ac4;
            }

            .cls-8 {
                fill: #edeff9;
            }

            .cls-9 {
                fill: #d3d6e2;
            }

            .cls-10 {
                fill: #35357a;
            }

            .cls-11 {
                clip-path: url(#clip-path);
            }

            .cls-12 {
                fill: #8c92a5;
            }

            .cls-13 {
                fill: #0e134f;
            }

            .cls-14 {
                fill: #d6d9e5;
            }

            .cls-15 {
                fill: #0a269b;
            }

            .cls-16 {
                fill: #fff;
            }

            .cls-17 {
                fill: #ef2e2e;
            }

            .cls-18 {
                fill: rgb(33, 33, 33);
                fill-opacity: .8;
                animation: youtube-btn 10s linear infinite;
            }

            @keyframes youtube-btn {
                0% {
                    fill: rgb(33, 33, 33);
                    fill-opacity: .8;
                }

                3% {
                    fill: rgb(33, 33, 33);
                    fill-opacity: .8;
                }

                5% {
                    fill: red;
                    fill-opacity: 1;
                }

                99% {
                    fill: red;
                    fill-opacity: 1;
                }

                100% {
                    fill: rgb(33, 33, 33);
                    fill-opacity: .8;
                }
            }

            .cls-19 {
                fill: #d19a52;
            }

            .cls-20 {
                fill: #c5d4cf;
            }

            .cls-21 {
                fill: #e5b38e;
            }

            .cls-22 {
                fill: #dd9d84;
            }

            .cls-23 {
                fill: #292f53;
            }

            .cls-24 {
                fill: #5d6ae8;
            }

            .cls-25 {
                fill: #d2d6ff;
            }

            .cls-26 {
                fill: #4a5bd8;
            }

            .cls-27 {
                fill: #edeffd;
            }

            .cls-28 {
                fill: #feb155;
            }

            .cls-29 {
                font-size: 54px;
                fill: #42526e;
                font-family: ProximaNova-Bold, Proxima Nova;
                font-weight: 700;
            }

            .cls-30 {
                fill: #39dcb1;
            }
        </style>
        <clipPath id="clip-path">
            <circle class="cls-1" cx="1711.55" cy="526.53" r="116.57" />
        </clipPath>
    </defs>
    <title>Youtube-HeroFold</title>
    <g id="Layer_2" data-name="Layer 2">
        <g id="Layer_1-2" data-name="Layer 1">
            <ellipse class="cls-2" cx="1084.57" cy="837.01" rx="900.09" ry="117.01" />
            <path class="cls-3"
                d="M596,526.53c20.35-9.81,32.9-24.28,37.29-43,10.42-44.43-29.51-96.48-31.22-98.67l-1.91-2.46H334.28v12.73H593.86c7.44,10.43,35,52,27.07,85.52-3.48,14.78-13.71,26.36-30.43,34.42Z" />
            <path class="cls-3"
                d="M559.58,521.53l12.64-1.43c-1.49-13.47-28-103-100.38-104.29-69.94-1.26-128.84,0-129.42,0l.28,12.73c.58,0,59.23-1.27,128.92,0C539.27,429.76,559.46,520.62,559.58,521.53Z" />
            <rect class="cls-4" x="414.88" y="509.78" width="201.92" height="96.72" />
            <polygon class="cls-4" points="370.76 768.54 443.73 830.48 501.42 830.48 558.69 773.21 370.76 768.54" />
            <rect class="cls-4" x="176.48" y="602.25" width="177.32" height="121.32" />
            <polygon class="cls-4" points="0 503.82 0 824.52 176.49 723.58 207.84 613.27 0 503.82" />
            <rect class="cls-5" x="310.1" y="555.17" width="462.83" height="246.46" />
            <rect class="cls-6" x="306.92" y="295.55" width="35.63" height="186.44" />
            <path class="cls-6"
                d="M146.69,423.44H312.1V354.08H146.69a31.84,31.84,0,0,0-31.84,31.84v5.68A31.84,31.84,0,0,0,146.69,423.44Z" />
            <rect class="cls-4" x="447.51" y="623.43" width="325.43" height="100.14"
                transform="translate(1220.45 1347.01) rotate(180)" />
            <rect class="cls-4" x="447.51" y="678.4" width="325.43" height="45.18"
                transform="translate(1220.45 1401.97) rotate(180)" />
            <path class="cls-6" d="M0,575.85V752.54a61.29,61.29,0,0,0,54-60.68V636.53A61.29,61.29,0,0,0,0,575.85Z" />
            <circle class="cls-7" cx="1701.7" cy="526.53" r="311.03" />
            <circle class="cls-8" cx="1701.7" cy="526.53" r="271.11" />
            <circle class="cls-9" cx="1709.35" cy="526.53" r="90.42" />
            <path
                d="M1585.13,391.18a79.48,79.48,0,1,1,79.47-79.47A79.56,79.56,0,0,1,1585.13,391.18Zm0-157.84a78.37,78.37,0,1,0,78.37,78.37A78.46,78.46,0,0,0,1585.13,233.34Z" />
            <g class="film-wrap">
                <circle class="cls-7" cx="1868.41" cy="420.89" r="61.22" />
                <circle class="cls-7" cx="1550.5" cy="623.18" r="61.22" />
                <circle class="cls-7" cx="1605.14" cy="371.71" r="61.22" />
                <circle class="cls-7" cx="1532.01" cy="492.49" r="61.22" />
                <circle class="cls-7" cx="1893.21" cy="563.19" r="61.22" />
                <circle class="cls-7" cx="1807.41" cy="678.02" r="61.22" />
                <circle class="cls-7" cx="1661.16" cy="708.59" r="61.22" />
                <circle class="cls-7" cx="1746.19" cy="344.48" r="61.22" />
            </g>
            <g class="cls-11">
                <polygon class="cls-12"
                    points="1803.62 519.47 1722.74 519.47 1777.55 464.66 1770.08 457.2 1712.38 514.89 1712.38 432.69 1701.83 432.69 1701.83 511.67 1647.36 457.2 1639.89 464.66 1694.69 519.47 1619.5 519.47 1619.5 530.02 1697.26 530.02 1639.89 587.39 1647.36 594.85 1701.83 540.38 1701.83 616.8 1712.38 616.8 1712.38 537.16 1770.08 594.85 1777.55 587.39 1720.18 530.02 1803.62 530.02 1803.62 519.47" />
            </g>
            <rect class="cls-13" x="530.82" width="1205" height="802.57" rx="20" ry="20" />
            <rect class="cls-3" x="564.94" y="45.24" width="1136.77" height="728.48" />
            <rect class="cls-13" x="596.94" y="144.98" width="559.88" height="540.93" rx="0.67" ry="0.67" />
            <rect class="cls-14" x="1197.65" y="444.06" width="490.92" height="126.2" rx="0.67" ry="0.67" />
            <rect class="cls-14" x="1197.65" y="590.69" width="490.92" height="37.4" />
            <rect class="cls-14" x="1197.65" y="648.52" width="490.92" height="37.4" />
            <rect class="cls-14" x="596.94" y="711.16" width="559.88" height="37.4" />
            <rect class="cls-14" x="1197.65" y="148.92" width="490.92" height="126.2" rx="0.67" ry="0.67" />
            <rect class="cls-14" x="596.94" y="63.91" width="136.62" height="52.03" rx="0.67" ry="0.67" />
            <rect class="cls-14" x="1197.65" y="295.55" width="490.92" height="37.4" />
            <rect class="cls-14" x="1197.65" y="353.38" width="490.92" height="37.4" />
            <rect class="cls-15" x="623.27" y="665.1" width="497.58" height="10.52" />
            <path class="cls-16" d="M1150.32,677.88h-23.75v-15h23.75Zm-21.95-1.8h20.15V664.65h-20.15Z" />
            <rect class="cls-16" x="605.79" y="664.8" width="3.31" height="10.83" />
            <rect class="cls-16" x="612.07" y="664.8" width="3.31" height="10.83" />
            <rect class="cls-17 video-progress" x="623.27" y="665.1" width="415.94" height="10.52" />
            <rect class="cls-14" x="774.14" y="63.91" width="806.74" height="52.03" />
            <rect class="cls-17" x="1484.78" y="63.91" width="131.43" height="52.03" />
            <path class="cls-18"
                d="M972.44,354.23a20.31,20.31,0,0,0-14.29-14.29c-12.68-3.47-63.42-3.47-63.42-3.47s-50.74,0-63.42,3.34A20.72,20.72,0,0,0,817,354.23c-3.34,12.68-3.34,39-3.34,39s0,26.44,3.34,39a20.31,20.31,0,0,0,14.29,14.29C844.13,450,894.73,450,894.73,450s50.74,0,63.42-3.34a20.31,20.31,0,0,0,14.29-14.29c3.34-12.68,3.34-39,3.34-39S975.91,366.91,972.44,354.23Z" />
            <path class="cls-16" d="M878.57,417.52l42.19-24.3-42.19-24.3Z" />
            <polygon class="cls-19"
                points="1123.47 917.21 1016.14 583.54 1022.25 583.54 1129.58 917.21 1123.47 917.21" />
            <polygon class="cls-19" points="1067.97 917.21 960.64 583.54 966.75 583.54 1074.09 917.21 1067.97 917.21" />
            <polygon class="cls-19" points="1050.06 670.19 1050.06 675.16 992.55 675.13 991.57 670.15 1050.06 670.19" />
            <polygon class="cls-19" points="1038.17 637.86 1038.17 642.83 980.66 642.8 979.68 637.82 1038.17 637.86" />
            <polygon class="cls-19" points="1028.34 605.52 1028.34 610.5 970.83 610.47 969.85 605.49 1028.34 605.52" />
            <polygon class="cls-19"
                points="1060.53 702.93 1060.53 707.91 1003.02 707.88 1002.04 702.9 1060.53 702.93" />
            <polygon class="cls-19"
                points="1070.36 735.68 1070.36 740.65 1012.86 740.62 1011.87 735.65 1070.36 735.68" />
            <polygon class="cls-19" points="1080.53 769.7 1082.86 774.67 1025.35 774.64 1024.37 769.67 1080.53 769.7" />
            <polygon class="cls-19"
                points="1091.31 803.72 1093.64 808.7 1036.13 808.66 1035.15 803.69 1091.31 803.72" />
            <polygon class="cls-19"
                points="1101.41 836.98 1103.73 841.96 1046.23 841.93 1045.24 836.95 1101.41 836.98" />
            <polygon class="cls-19"
                points="1109.78 870.97 1112.1 875.95 1054.59 875.92 1053.61 870.94 1109.78 870.97" />
            <polygon class="cls-19" points="855.94 917.21 963.27 583.54 957.16 583.54 849.83 917.21 855.94 917.21" />
            <polygon class="cls-19" points="911.44 917.21 1018.77 583.54 1012.66 583.54 905.33 917.21 911.44 917.21" />
            <polygon class="cls-19" points="929.35 670.19 929.35 675.16 986.86 675.13 987.84 670.15 929.35 670.19" />
            <polygon class="cls-19" points="941.24 637.86 941.24 642.83 998.75 642.8 999.73 637.82 941.24 637.86" />
            <polygon class="cls-19" points="951.07 605.52 951.07 610.5 1008.58 610.47 1009.56 605.49 951.07 605.52" />
            <polygon class="cls-19" points="918.88 702.93 918.88 707.91 976.38 707.88 977.37 702.9 918.88 702.93" />
            <polygon class="cls-19" points="909.05 735.68 909.05 740.65 966.55 740.62 967.54 735.65 909.05 735.68" />
            <polygon class="cls-19" points="898.88 769.7 896.55 774.67 954.06 774.64 955.04 769.67 898.88 769.7" />
            <polygon class="cls-19" points="888.1 803.72 885.77 808.7 943.28 808.66 944.26 803.69 888.1 803.72" />
            <polygon class="cls-19" points="878 836.98 875.68 841.96 933.18 841.93 934.16 836.95 878 836.98" />
            <polygon class="cls-19" points="869.63 870.97 867.31 875.95 924.82 875.92 925.8 870.94 869.63 870.97" />
            <path class="cls-20"
                d="M971.44,595s-5.24,4.86-17.18,7.9c-2.63.67-5.46-.23-5.46,4.11h14.49l12.06-2.08V607h6.51s1.81-10.65-2-12Z" />
            <path class="cls-21" d="M972.17,587.31l-.73,7.65h0a7.37,7.37,0,0,0,8,.27l.45-.27,2.7-7.65Z" />
            <path class="cls-20"
                d="M1007.72,595s-5.24,4.86-17.18,7.9c-2.63.67-5.46-.23-5.46,4.11h14.5l12.05-2.08V607h6.51s1.81-10.65-2-12Z" />
            <path class="cls-21" d="M1008.45,587.31l-.73,7.65h0a7.37,7.37,0,0,0,8,.27l.45-.27,2.7-7.65Z" />
            <polygon class="cls-22" points="995.37 335.97 997.42 348.45 1008.54 343.49 1004.87 328.5 995.37 335.97" />
            <path class="cls-21"
                d="M991.33,337.13a6.71,6.71,0,0,1-3.75-.89c-4.48-6.52.62-24.09.62-24.09l7.16-3,9.1,5.68.52,11.77a9.56,9.56,0,0,1-4.06,8.12h0A18.65,18.65,0,0,1,991.33,337.13Z" />
            <path class="cls-23"
                d="M1001.95,318.2a3.94,3.94,0,0,0-4.44-2.94,31.32,31.32,0,0,1-4.92.45c-4,0-9-1.58-9-7.72s7.55-4,7.55-4,15.51,2.35,21.51,6.85c2.87,2.15-1.93,9-3.7,12.42a18.87,18.87,0,0,1-4,5.28h0Z" />
            <path class="cls-21"
                d="M1007.13,321.92a3,3,0,0,0-3.76.34c-1.18,1-1.4,2.42-.5,3.21a3,3,0,0,0,3.76-.34C1007.81,324.16,1008,322.72,1007.13,321.92Z" />
            <path class="cls-24"
                d="M997.42,348.45s-16.74,27.48-26.75,91.31c20.17,6.34,51,13.19,51,13.19s18.21-69.18-13.1-109.46C1002,343.49,997.42,348.45,997.42,348.45Z" />
            <path class="cls-25"
                d="M970.66,439.76s-14,47.05-14,68.35,14,81.38,14,81.38h12.88s3-42-.69-65.63a47.73,47.73,0,0,1,1.39-20.77c6.91-23.66,14.27-55.66,14.27-55.66Z" />
            <path class="cls-25"
                d="M980.26,443.52s-3.63,51.09,2.18,69.51,25.24,76.47,25.24,76.47h11.38s2.91-31.62-6.31-65.15a42.16,42.16,0,0,1,.82-24.74c8.88-26.11,8.06-46.65,8.06-46.65Z" />
            <path class="cls-21"
                d="M951.9,446.88c-.56.34-2.61,1.33-7.23,1.12-4.15-.19-12.65-3.11-11.51,1.16,3.65,2.63,7.63,6.16,7.63,6.16,2.37,1.37,6.95.86,9.74,0l8.26-3.68s1.21-4.22,1.31-4.41l-1.66-.94A21.28,21.28,0,0,1,951.9,446.88Z" />
            <path class="cls-21"
                d="M950.26,448.51a3.33,3.33,0,0,1-.52.43c.52.29,1,.6,1.49.93,2.14.34,4.27.74,6.41,1.1,0-1.26.07-3,.1-3.14l-13.53-5.13s-1.32,1.32,1,3.24A14.39,14.39,0,0,0,950.26,448.51Z" />
            <path class="cls-24"
                d="M995.37,370.48l-3.75,30.6a28,28,0,0,1-7.42,15.79L956.64,446.1l2.73,6.85s41.52-19.57,49.16-31.16S1020,374.85,1020,374.85Z" />
            <path class="cls-26"
                d="M1017.83,386.62c-1.79,11.34-5.06,27.75-9.75,34.87-7,10.63-43.58,28.4-48.42,30.72l-2.39-6,27.33-29a28.34,28.34,0,0,0,7.56-16.1l1.68-13.72q-.52-.29-1-.62L991.08,401a27.26,27.26,0,0,1-7.27,15.49l-27.56,29.23L956,446l3.08,7.71.52-.25c1.7-.8,41.75-19.77,49.39-31.36,5-7.55,8.31-24.73,10.07-36.15Q1018.46,386.29,1017.83,386.62Z" />
            <polygon class="cls-16" points="996.77 344.5 1007.69 338.48 1008.54 343.49 996.77 349.59 996.77 344.5" />
            <g class="comment-box">
                <rect class="cls-27" x="297.5" width="283.83" height="117.01" rx="12" ry="12" />
                <path id="Forma_1" data-name="Forma 1" class="cls-28"
                    d="M373.76,22.49c-19.79,0-35.89,14.71-35.89,32.78A30.62,30.62,0,0,0,343.58,73c-.7,7.95-2.6,13.84-5.35,16.62A1.23,1.23,0,0,0,338,91a1.19,1.19,0,0,0,1.07.67h.17a63.19,63.19,0,0,0,19.88-6.48,38.42,38.42,0,0,0,14.64,2.84c19.79,0,35.89-14.71,35.89-32.78S393.55,22.49,373.76,22.49ZM357,60.13a4.86,4.86,0,1,1,4.79-4.93v.06A4.83,4.83,0,0,1,357,60.13h0Zm16.75,0a4.86,4.86,0,1,1,4.79-4.93v.06A4.83,4.83,0,0,1,373.76,60.13Zm16.75,0a4.86,4.86,0,1,1,4.79-4.93v.06a4.83,4.83,0,0,1-4.78,4.87h0Z" />
                <text class="cls-29" transform="translate(428.34 71.08)">128k</text>
            </g>
            <g class="like-box">
                <rect class="cls-27" x="378.5" y="233" width="283.83" height="117.01" rx="12" ry="12" /><text
                    class="cls-29" transform="translate(509.34 309.08)">508k</text>
                <path class="cls-30"
                    d="M428.25,278.66H419a2.33,2.33,0,0,0-2.33,2.33v42a2.33,2.33,0,0,0,2.33,2.33h9.3a2.33,2.33,0,0,0,2.33-2.33V281A2.33,2.33,0,0,0,428.25,278.66Zm53.8,0c-.37-.06-17.91,0-17.91,0l2.45-6.71c1.69-4.63.6-11.71-4.09-14.22a8,8,0,0,0-5.38-.79,3.87,3.87,0,0,0-2.37,1.78A9.73,9.73,0,0,0,454,262a14.31,14.31,0,0,1-4,7.57c-3.61,3.53-14.83,13.72-14.83,13.72v37.36H474A7.07,7.07,0,0,0,480,310.24a7.08,7.08,0,0,0,2.32-9.34,7.09,7.09,0,0,0,2.33-9.34A7.12,7.12,0,0,0,482,278.66Z" />
            </g>
        </g>
    </g>
</svg>